name analog
datacolumns 19
datarows 29
range 0.185 0.199
endheader
time	ground_force_vx	ground_force_vy	ground_force_vz	ground_force_px	ground_force_py	ground_force_pz	l_ground_force_vx	l_ground_force_vy	l_ground_force_vz	l_ground_force_px	l_ground_force_py	l_ground_force_pz	ground_torque_x	ground_torque_y	ground_torque_z	l_ground_torque_x	l_ground_torque_y	l_ground_torque_z
0.185	-0.0	-0.0	-0.0	-0.0	-0.0	-0.0	-7.261216640472412	4.252451419830322	-632.5193481445312	-0.0	-0.0	-0.0	-0.0	-0.0	-0.0	179084.3125	5401.85107421875	-3733.01416015625
0.1855	-0.0	-0.0	-0.0	-0.0	-0.0	-0.0	-6.690030574798584	4.943754196166992	-633.710205078125	-0.0	-0.0	-0.0	-0.0	-0.0	-0.0	179980.75	5052.10107421875	-3740.412353515625
0.186	-0.0	-0.0	-0.0	-0.0	-0.0	-0.0	-5.956542491912842	4.706776142120361	-638.2931518554688	-0.0	-0.0	-0.0	-0.0	-0.0	-0.0	180826.25	4703.41162109375	-3372.35888671875
0.1865	-0.0	-0.0	-0.0	-0.0	-0.0	-0.0	-6.119760990142822	4.832092761993408	-637.652099609375	-0.0	-0.0	-0.0	-0.0	-0.0	-0.0	181649.296875	4876.1201171875	-3516.37890625
0.187	-0.0	-0.0	-0.0	-0.0	-0.0	-0.0	-6.387176513671875	4.062797546386719	-639.894287109375	-0.0	-0.0	-0.0	-0.0	-0.0	-0.0	182277.21875	4961.53662109375	-3537.80517578125
0.1875	-0.0	-0.0	-0.0	-0.0	-0.0	-0.0	-6.374467849731445	4.113160133361816	-640.6932373046875	-0.0	-0.0	-0.0	-0.0	-0.0	-0.0	182624.15625	5087.095703125	-3571.589111328125
0.188	-0.0	-0.0	-0.0	-0.0	-0.0	-0.0	-6.437757015228272	3.709510803222656	-640.1939697265625	-0.0	-0.0	-0.0	-0.0	-0.0	-0.0	182995.203125	4809.43994140625	-3626.94287109375
0.1885	-0.0	-0.0	-0.0	-0.0	-0.0	-0.0	-6.158747673034668	3.343711376190185	-639.7446899414062	-0.0	-0.0	-0.0	-0.0	-0.0	-0.0	182873.546875	4558.6171875	-3512.29296875
0.189	-0.0	-0.0	-0.0	-0.0	-0.0	-0.0	-5.53758430480957	2.8387444019317627	-639.3458251953125	-0.0	-0.0	-0.0	-0.0	-0.0	-0.0	182940.15625	4709.85400390625	-3443.853271484375
0.1895	-0.0	-0.0	-0.0	-0.0	-0.0	-0.0	-5.805174350738525	2.813914060592652	-641.1402587890625	-0.0	-0.0	-0.0	-0.0	-0.0	-0.0	182818.046875	4636.43212890625	-3423.094482421875
0.19	-0.0	-0.0	-0.0	-0.0	-0.0	-0.0	-5.551708221435547	2.4607043266296387	-639.3939208984375	-0.0	-0.0	-0.0	-0.0	-0.0	-0.0	182799.265625	4392.853515625	-3300.164306640625
0.1905	-0.0	-0.0	-0.0	-0.0	-0.0	-0.0	-5.248887062072754	2.369800567626953	-640.7416381835938	-0.0	-0.0	-0.0	-0.0	-0.0	-0.0	182834.640625	4367.890625	-3278.508056640625
0.191	-0.0	-0.0	-0.0	-0.0	-0.0	-0.0	-4.371264457702637	2.600992441177368	-640.8499755859375	-0.0	-0.0	-0.0	-0.0	-0.0	-0.0	183095.265625	4101.451171875	-3172.4150390625
0.1915	-0.0	-0.0	-0.0	-0.0	-0.0	-0.0	-4.4112324714660645	2.1560208797454834	-640.1383666992188	-0.0	-0.0	-0.0	-0.0	-0.0	-0.0	182810.171875	4024.991943359375	-3057.986083984375
0.192	-0.0	-0.0	-0.0	-0.0	-0.0	-0.0	-3.689604997634888	1.854755401611328	-642.201171875	-0.0	-0.0	-0.0	-0.0	-0.0	-0.0	182558.4375	3756.140625	-2926.772216796875
0.1925	-0.0	-0.0	-0.0	-0.0	-0.0	-0.0	-3.560436725616455	1.3772886991500854	-641.8824462890625	-0.0	-0.0	-0.0	-0.0	-0.0	-0.0	182662.625	3631.011474609375	-2756.92333984375
0.193	-0.0	-0.0	-0.0	-0.0	-0.0	-0.0	-3.2891221046447754	0.2411863505840301	-642.183837890625	-0.0	-0.0	-0.0	-0.0	-0.0	-0.0	182725.609375	3688.601318359375	-2676.03466796875
0.1935	-0.0	-0.0	-0.0	-0.0	-0.0	-0.0	-3.891396999359131	-0.0354761891067028	-642.9970703125	-0.0	-0.0	-0.0	-0.0	-0.0	-0.0	182508.078125	3663.376953125	-2808.945068359375
0.194	-0.0	-0.0	-0.0	-0.0	-0.0	-0.0	-4.276027202606201	-0.2767135202884674	-641.0888061523438	-0.0	-0.0	-0.0	-0.0	-0.0	-0.0	182234.046875	3641.675048828125	-2965.56982421875
0.1945	-0.0	-0.0	-0.0	-0.0	-0.0	-0.0	-4.589501857757568	-0.5416080951690674	-639.7380981445312	-0.0	-0.0	-0.0	-0.0	-0.0	-0.0	181917.546875	3643.7587890625	-2930.0888671875
0.195	-0.0	-0.0	-0.0	-0.0	-0.0	-0.0	-3.961539506912232	-0.583446204662323	-639.5999145507812	-0.0	-0.0	-0.0	-0.0	-0.0	-0.0	181902.28125	3833.29931640625	-3042.775390625
0.1955	-0.0	-0.0	-0.0	-0.0	-0.0	-0.0	-3.7374343872070312	-0.2880260646343231	-640.6932373046875	-0.0	-0.0	-0.0	-0.0	-0.0	-0.0	182001.546875	3686.68896484375	-2992.371337890625
0.196	-0.0	-0.0	-0.0	-0.0	-0.0	-0.0	-3.756970643997192	-0.5299301147460938	-640.6478881835938	-0.0	-0.0	-0.0	-0.0	-0.0	-0.0	182204.453125	3533.698974609375	-2979.6162109375
0.1965	-0.0	-0.0	-0.0	-0.0	-0.0	-0.0	-3.371009826660156	-0.341895580291748	-643.3063354492188	-0.0	-0.0	-0.0	-0.0	-0.0	-0.0	182130.078125	3553.664794921875	-3024.390380859375
0.197	-0.0	-0.0	-0.0	-0.0	-0.0	-0.0	-3.0275373458862305	-0.3759283721446991	-641.7854614257812	-0.0	-0.0	-0.0	-0.0	-0.0	-0.0	182188.578125	3551.56591796875	-2983.861572265625
0.1975	-0.0	-0.0	-0.0	-0.0	-0.0	-0.0	-2.793515205383301	-0.783637285232544	-641.264892578125	-0.0	-0.0	-0.0	-0.0	-0.0	-0.0	182055.015625	3288.30126953125	-3024.13671875
0.198	-0.0	-0.0	-0.0	-0.0	-0.0	-0.0	-2.7612645626068115	-0.971538543701172	-642.7880859375	-0.0	-0.0	-0.0	-0.0	-0.0	-0.0	182231.015625	3296.941650390625	-2928.06298828125
0.1985	-0.0	-0.0	-0.0	-0.0	-0.0	-0.0	-2.6284494400024414	-1.6120270490646362	-642.83203125	-0.0	-0.0	-0.0	-0.0	-0.0	-0.0	182019.171875	3166.14892578125	-2816.62841796875
0.199	-0.0	-0.0	-0.0	-0.0	-0.0	-0.0	-2.628050804138184	-2.03139877319336	-643.00634765625	-0.0	-0.0	-0.0	-0.0	-0.0	-0.0	182215.8125	2890.261474609375	-2835.29833984375
